<mxfile host="app.diagrams.net" modified="2023-05-29T06:36:36.390Z" agent="Mozilla/5.0 (Windows NT 10.0; Win64; x64) AppleWebKit/537.36 (KHTML, like Gecko) Chrome/113.0.0.0 Safari/537.36" etag="HwqTaYVgd6NprvVuvMVH" version="21.3.4" type="github">
  <diagram name="Страница 1" id="-sxZL09CVBLJbR6NK-8X">
    <mxGraphModel dx="5160" dy="2605" grid="0" gridSize="10" guides="1" tooltips="1" connect="1" arrows="1" fold="1" page="0" pageScale="1" pageWidth="827" pageHeight="1169" math="0" shadow="0">
      <root>
        <mxCell id="0" />
        <mxCell id="1" parent="0" />
      </root>
    </mxGraphModel>
  </diagram>
</mxfile>
